<svg xmlns="http://www.w3.org/2000/svg" width="18" height="18" fill="none"><path fill="#fff" d="M16.5 4.282v7.185c0 2.07-1.68 3.75-3.75 3.75h-7.5a3.7 3.7 0 0 1-.997-.135c-.465-.127-.615-.72-.27-1.065l7.972-7.972c.165-.165.413-.203.645-.158a.79.79 0 0 0 .69-.202l1.928-1.935c.705-.705 1.282-.473 1.282.532M10.98 5.52l-7.853 7.852c-.36.36-.96.27-1.2-.18a3.6 3.6 0 0 1-.427-1.725V4.282c0-1.005.578-1.237 1.283-.532l1.935 1.942a.77.77 0 0 0 1.064 0L8.467 3a.756.756 0 0 1 1.066 0l1.455 1.455a.763.763 0 0 1-.008 1.065"/></svg>