<svg xmlns="http://www.w3.org/2000/svg" width="18" height="18" fill="none"><path fill="#fff" d="M12.75 16.5h-7.5a.567.567 0 0 1-.563-.563c0-.307.255-.562.563-.562h7.5c.307 0 .563.255.563.563a.567.567 0 0 1-.563.562m2.512-12.36-3 2.145a.755.755 0 0 1-1.14-.345L9.705 2.16c-.24-.652-1.163-.652-1.403 0L6.877 5.933a.74.74 0 0 1-1.132.345l-3-2.145c-.6-.42-1.395.172-1.148.87l3.12 8.737c.105.3.39.495.705.495h7.148c.315 0 .6-.202.705-.495l3.12-8.737c.255-.698-.54-1.29-1.133-.863m-4.387 6.923h-3.75a.567.567 0 0 1-.563-.563c0-.307.255-.562.563-.562h3.75c.307 0 .562.255.562.562a.567.567 0 0 1-.562.563"/></svg>