<svg xmlns="http://www.w3.org/2000/svg" width="18" height="18" fill="none"><path fill="#fff" d="M6.75 10.665H2.94c-.457 0-.877.233-1.117.623-.24.382-.263.84-.068 1.245a8.13 8.13 0 0 0 4.568 4.072c.135.045.285.075.427.075a1.323 1.323 0 0 0 1.313-1.32l.007-3.375c0-.352-.135-.682-.382-.93a1.34 1.34 0 0 0-.938-.39M16.86 7.2A8.014 8.014 0 0 0 9 .937 8.014 8.014 0 0 0 1.14 7.2c-.09.39 0 .787.255 1.103.255.314.63.494 1.035.494h13.148A1.3 1.3 0 0 0 16.86 7.2m-1.815 3.503-3.795-.008a1.304 1.304 0 0 0-1.313 1.313l.008 3.36a1.323 1.323 0 0 0 1.313 1.32c.142 0 .285-.023.42-.075a8.14 8.14 0 0 0 4.552-4.035 1.28 1.28 0 0 0-.06-1.238 1.31 1.31 0 0 0-1.125-.637"/></svg>