<svg xmlns="http://www.w3.org/2000/svg" width="18" height="18" fill="none"><path fill="#fff" d="M8.438 2.925V9.69c0 .247-.12.473-.323.615l-5.407 3.787c-.443.308-1.073.068-1.17-.465-.113-.645.037-1.402.487-2.22L4.365 7.2 6.57 3.232q.261-.46.555-.81c.45-.525 1.313-.187 1.313.503m6.855 11.167-5.408-3.787a.75.75 0 0 1-.322-.615V2.925c0-.69.862-1.028 1.312-.503.195.233.383.503.555.81L13.635 7.2l2.34 4.208c.45.817.6 1.575.487 2.22-.097.532-.727.772-1.17.464Zm-11.348.263 4.612-3.075a.88.88 0 0 1 .9 0l4.613 3.075c1.222.817 1.02 1.485-.45 1.485H4.387c-1.462-.008-1.665-.675-.442-1.485"/></svg>