<svg xmlns="http://www.w3.org/2000/svg" width="20" height="21" fill="none"><path fill="#030303" fill-rule="evenodd" d="M17.165 17.542h-2.84V12.9c0-1.106-.019-2.53-1.478-2.53-1.48 0-1.704 1.207-1.704 2.452v4.72H8.302V7.998h2.725v1.304h.039c.379-.75 1.306-1.54 2.69-1.54 2.878 0 3.41 1.975 3.41 4.546zM5.098 6.694c-.217 0-.431-.044-.631-.13a1.7 1.7 0 0 1-.535-.372 1.7 1.7 0 0 1-.358-.558 1.8 1.8 0 0 1-.001-1.316c.082-.209.203-.399.356-.559a1.7 1.7 0 0 1 .535-.373c.2-.087.414-.131.63-.132.438 0 .857.18 1.166.503.31.322.484.76.484 1.216s-.173.894-.481 1.216a1.6 1.6 0 0 1-1.165.505M3.674 17.542h2.845V7.998H3.673zM18.58.5H2.247C1.467.5.833 1.146.833 1.942v17.115c0 .796.634 1.443 1.414 1.443h16.334c.782 0 1.419-.647 1.419-1.443V1.942C20 1.146 19.363.5 18.58.5" clip-rule="evenodd"/></svg>