<svg xmlns="http://www.w3.org/2000/svg" width="197" height="128.769"><defs><style>.a{fill:#fff}.b{fill:#dfdfdf}</style></defs><path d="m186 72.447-2.563-2.563-46.728 5.733V67.16l22.364-2.747v-23.39l33.814-4.633V13.136L182.316 2.563 179.753 0 170.7 1.11v2.734l-2.427-2.435-10.956 1.346v3.48l-.5-.5c-1.584-1.581-3.824-2.353-6.835-2.353a24 24 0 0 0-3.119.22c-4.149.533-7.291 2-9.382 4.374L135.009 5.5l-9.361 1.14v5.1l-1.978-1.978-2.563-2.562-13.475 1.657-1.538 5.828-2.306-2.322a8.2 8.2 0 0 0-6.115-2.153 25 25 0 0 0-3.027.238l-9.531 1.166L72.224 13.2 70.9 17.252l-.9-.9-2.558-2.562-3.823.472-7.826.961v4.923l-1.823-1.823-2.563-2.563-13.464 1.666-1.868 7.174-.256-.243-2.563-2.557c-2.142-2.165-5.551-3.216-10.42-3.216-1.914 0-5.287.423-7.1.651C5.612 20.5.031 25.768.028 34.083L0 115.63l10.574 10.576 2.563 2.563 78.241-9.592 24.133 8.093v-11.053l75.284-9.226v-7.739c1.63-3.931 5.571-14.146 5.61-14.246l.6-1.553Z"/><path d="m145.16 30.79-15.791 1.937v5.553l5.028-.618V52.04l5.569-.684V36.979l5.195-.638ZM62.158 52.955l2.14-9.63.19-.041 1.95 9.146Zm6.022 7.211 7.214-.884-5.679-19.22-10.477 1.281-5.356 20.583 6.384-.784.912-3.941 6.227-.769h-.067Zm59.636-13.156c0-3.844-1.894-5.315-7.291-5.453-3.711-.085-4.131-.823-4.131-1.768 0-.843.6-1.471 2.527-1.714a9 9 0 0 1 1.156-.085c1.281 0 1.983.443 1.9 1.927l5.528-.707c.238-4.326-1.709-5.7-5.523-5.7a26 26 0 0 0-3.247.238c-6.053.769-8.739 3.308-8.739 7.047 0 3.421 1.474 5.261 7.5 5.32 3.421.044 4.026.73 4.026 1.863 0 .971-.6 1.576-2.819 1.853-.346.044-.948.131-1.225.131-2.253 0-2.306-1.333-2.258-2.1l-5.54.718c-.464 4.572 1.822 5.927 5.7 5.927a33 33 0 0 0 3.636-.31c6.368-.8 8.79-3.331 8.79-7.175m-73.375 61.661c6.368-.8 8.79-3.331 8.79-7.175s-1.894-5.315-7.291-5.451c-3.711-.087-4.131-.823-4.131-1.771 0-.843.6-1.471 2.527-1.712a9 9 0 0 1 1.156-.087c1.281 0 1.984.443 1.9 1.927l5.528-.694c.238-4.326-1.707-5.7-5.523-5.7a26 26 0 0 0-3.247.238c-6.053.769-8.739 3.311-8.739 7.047 0 3.421 1.474 5.264 7.5 5.32 3.421.044 4.026.73 4.026 1.863 0 .974-.6 1.576-2.819 1.855-.346.044-.948.128-1.225.128-2.253 0-2.306-1.33-2.258-2.1l-5.525.7c-.464 4.572 1.822 5.925 5.7 5.925a33 33 0 0 0 3.636-.31m122.47-15.274v-5.981c1.42-3.375 5.779-14.651 5.779-14.651l-6.343.769c-.256 1.058-.884 3.37-1.62 6.6-.295 1.21-.6 2.206-.894 3.3l-.256.038c-.379-1.233-1.479-4.613-2.96-9.241l-6.543.82s4.205 9.569 5.8 13.213v5.992Zm-4.445-69.802 6.519-.8V2.883l-5.564.682v7.657l.325 3.134-.164.021-6.076-10.085-7.47.917v19.924l5.574-.684v-9.324l-.264-3.009.164-.021Zm-79.746.341-1.581.195v-5.867l1.281-.156 1.737-.213a9 9 0 0 1 1.13-.09c1.128 0 2.247.379 2.247 2.291 0 3.247-1.966 3.488-4.815 3.844m10.861-5.066c0-4.943-2.85-5.922-5.766-5.922a25 25 0 0 0-2.965.256l-9.282 1.128v19.93l5.571-.684v-4.788c7.368-.907 12.444-1.538 12.444-9.925m-36.983 88.072 15.845-1.945v-4.774l-10.276 1.261v-3.644l9.866-1.21V92.5l-9.866 1.21v-2.7l10.276-1.261v-4.663l-15.845 1.945Zm90.764-31.07-5.569.684v19.925l14.325-1.758v-4.808l-8.757 1.115ZM75.843 35.472l5.569-.684V14.863l-7.124.874-3.624 11.132-.287.036-.774-2.611-2.96-7.616-8.152 1v19.924l5.569-.684v-9.255l-.261-2.883.161-.021 4.513 11.622 2.8-.343 4.592-12.739.19-.023-.215 3.639Zm-32.79-3.951 2.14-9.633.192-.041 1.948 9.162Zm6.027 7.224 7.2-.884-5.661-19.22-10.494 1.281-5.355 20.579 6.381-.779.915-3.954 6.224-.767h-.059Zm63.677-15.817 2.142-9.633.19-.041 1.95 9.149Zm6.038 7.273 7.219-.887-5.679-19.22-10.507 1.281-5.356 20.584 6.376-.769.915-4.026 6.227-.769h-.056Zm-3.59 62.786 2.232-9.63 2.05 9.105Zm6.035 7.26 7.216-.887-5.679-19.22-10.506 1.28-5.359 20.573 6.358-.769.951-4 6.227-.769h-.059ZM90.908 80.514l6.525-.8V59.79l-5.566.684v7.655l.325 3.1-.164.018-6.076-10.046-7.47.917v19.925l5.574-.687v-9.323l-.261-3.009.161-.021Zm9.497-24.305 6.525-.8V35.485l-5.566.684v7.655l.325 3.1-.161.02-6.079-10.046-7.47.917V57.74l5.574-.687v-9.32l-.261-3.011.161-.018ZM2.722 91.354l30.411-3.742v-6.806l-21.642 2.675.179-13.154-8.951 1.085c.036 2.455.292 3.554 0 19.648ZM24.64 33.332c-.279 1.538-2.306 3.216-5.84 3.665-.354.044-.93.11-1.468.169l-1.117.128c-3.2.4-5.274-1.2-5.274-4 0-3.393 2.063-5.151 6.691-5.7l.256-.031c.73-.087 2.665-.32 3.052-.32a4.1 4.1 0 0 1 3.114.935 1.82 1.82 0 0 1 .42 1.409l8.749-1.133a6.6 6.6 0 0 0-1.566-4.603c-1.625-1.709-4.467-2.54-8.68-2.54-1.755 0-5.151.428-6.783.633-6.15.769-13.472 3.536-13.472 12.321 0 6.637 3.331 9.864 10.174 9.864.951 0 2.873-.256 4.144-.41l.433-.054c7.688-.971 15.561-3.093 15.75-11.45Zm-6.984 17.945 3.2 7.152-6.919.851Zm-6.15 13.582c.167-.366.3-.677.382-.848l10.663-1.31 1.327 2.9 8.667-1.064-7.654-18.98-13.526 1.661-9.656 21.111 8.713-1.063c1.253-2.783 1.066-2.365 1.084-2.409m11.528 27.522-3.844 7.9c-.046.095-1.048 2.081-1.573 3.378a77 77 0 0 0-1.461-3.006s-2.563-5.018-3.5-6.824l-.082-.161-9.815 1.2-.041 19.909 6.86-.8v-8.451c0-.02-.161-1.655-.256-2.985a50 50 0 0 0 1.358 2.66l4.536 8.331 4.628-.569 5.125-9.738c0-.015.492-1.153.935-2.306-.049.653-.085 1.3-.12 1.973l-.036.628v8.48l7.391-.91-.037-19.924Zm19.209 17.562v-19.92l-5.856.72v19.927Zm0-23.456V66.558l-5.856.72v19.925Zm32.518-4V62.56l-5.856.72v19.925Zm8.937-24.218V38.34l-5.856.72v19.925Zm50.517-29.962V8.38l-5.856.718v19.927ZM95.098 92.741c-1.266.149-2.732.359-3.613.464v-5.079c1.158-.138 2.768-.359 3.28-.423a8 8 0 0 1 .979-.072c1.294 0 1.891.525 1.891 2.245a2.528 2.528 0 0 1-2.537 2.865m5.523 10.038c1.522-.195 3.926-.482 3.926-.482-1.112-6.168-1.571-7.345-4.51-7.591.013-.12.028-.141.031-.205 2.335-.769 3.867-3.026 3.867-6.038 0-3.588-2.165-5.2-5.861-5.2a15 15 0 0 0-1.866.126L85.916 84.67v19.927l5.571-.7v-6.753s2.091-.256 2.64-.318a12 12 0 0 1 1.381-.105c.748 0 1.366.256 1.6 1.433.213 1.071.441 2.268.636 3.2.256 1.281.935 1.522 1.638 1.522a11 11 0 0 0 1.24-.1m56.181-90.05c-.067-4.972-2.578-6.6-6.683-6.6a22 22 0 0 0-2.793.2c-6.924.893-10.224 4.484-10.224 11.436 0 6.361 2.683 9.507 8.388 9.507q.84 0 1.763-.09c9.046-.884 9.907-6.835 9.482-12.462-2.773.374-9.738 1.248-9.738 1.248v3.511s3.011-.39 4.246-.543c-.156 2.168-2.05 3.173-4.023 3.426a6 6 0 0 1-.689.046c-2.276 0-3.283-1.7-3.283-5.4 0-4.3 1.5-5.72 3.972-6.038a7 7 0 0 1 .923-.064c1.93 0 2.732.969 2.563 2.614l6.115-.782M136.39 82.374c1.153-.143 2.329-.272 3.38-.4a7 7 0 0 1 .838-.062c1.087 0 1.561.415 1.561 1.553 0 1.607-.769 2.36-2.476 2.6-1 .126-2.094.241-3.3.392Zm3.411 11.048c-.974.123-2.119.277-3.4.41v-4.1c1.227-.151 2.342-.284 3.331-.41a7 7 0 0 1 .864-.061c1.2 0 1.717.472 1.717 1.73 0 1.632-.712 2.2-2.527 2.424m-8.969 5.638 11.237-1.368c4.685-.589 6.689-2.545 6.689-6.176 0-3.075-1.281-4.305-3.98-4.305h-.441v-.179c3.175-.725 4.182-2.124 4.182-4.954 0-3.232-1.666-4.459-4.731-4.459a16 16 0 0 0-1.978.169l-10.981 1.348ZM52.279 49.308c-.067-4.972-2.578-6.6-6.681-6.6a22 22 0 0 0-2.8.2c-6.919.887-10.23 4.477-10.23 11.432 0 6.358 2.683 9.507 8.388 9.507q.84 0 1.763-.092c9.046-.884 9.907-6.835 9.482-12.46-2.773.374-9.738 1.248-9.738 1.248v3.499s3.011-.39 4.249-.543c-.159 2.168-2.05 3.173-4.026 3.426a6 6 0 0 1-.689.046c-2.276 0-3.283-1.7-3.283-5.4 0-4.3 1.5-5.722 3.972-6.038a7 7 0 0 1 .923-.064c1.93 0 2.732.969 2.563 2.614 2.622-.333 4.5-.579 6.115-.782m67.818 16.857c-2.773.374-9.738 1.248-9.738 1.248v3.5s3.011-.39 4.246-.543c-.156 2.168-2.05 3.173-4.023 3.426a6 6 0 0 1-.692.046c-2.265 0-3.29-1.7-3.29-5.407 0-4.3 1.5-5.722 3.972-6.04a8 8 0 0 1 .923-.061c1.93 0 2.732.969 2.563 2.614 2.622-.333 4.5-.579 6.112-.782-.064-4.972-2.575-6.6-6.681-6.6a22 22 0 0 0-2.793.2c-6.919.887-10.23 4.474-10.23 11.432 0 6.358 2.681 9.507 8.388 9.507q.838 0 1.763-.09c9.046-.884 9.9-6.837 9.482-12.462" class="a"/><path d="m44.857 66.188-.005-.015Z"/><path d="M55.866 80.724c-1.484-6.1-2.381-9.461-3.783-15.361l-7.211.884 5.694 19.22 10.448-1.281 5.358-20.583-6.381.784c-.879 3.793-2.54 10.356-3.918 16.286a1 1 0 0 1-.192.044" class="a"/><path d="m53.983 30.081.038.131.067-.008-.015-.136Z"/><path d="m53.96 30.084.015.133.046-.005-.038-.131Z" class="b"/><path d="m55.164 34.058.008.064.021.069.087-.01-.015-.136Z"/><path d="M55.182 34.194h.01l-.021-.069Z" class="b"/></svg>