<svg xmlns="http://www.w3.org/2000/svg" width="21" height="21" fill="none"><g clip-path="url(#a)"><path fill="#030303" d="M20.833 10.5c0-5.523-4.477-10-10-10s-10 4.477-10 10c0 4.991 3.657 9.128 8.438 9.878v-6.987H6.73V10.5h2.54V8.297c0-2.506 1.492-3.89 3.777-3.89 1.093 0 2.238.195 2.238.195v2.46h-1.26c-1.243 0-1.63.771-1.63 1.563V10.5h2.773l-.443 2.89h-2.33v6.988c4.78-.75 8.437-4.887 8.437-9.878Z"/></g><defs><clipPath id="a"><rect width="20" height="20" x=".833" y=".5" fill="#fff" rx="10"/></clipPath></defs></svg>