<svg xmlns="http://www.w3.org/2000/svg" xml:space="preserve" viewBox="0 0 183 40"><path d="M49.6.7H.6v19h49z" style="fill:#fff"/><path d="m49 2.4-1 3.3c-.9-.4-2-.8-3.7-.8-1.8 0-3.2.3-3.2 1.6 0 2.3 6.4 1.5 6.4 6.5 0 4.6-4.3 5.7-8.1 5.7-1.7 0-3.7-.4-5.1-.9l1-3.4c.9.6 2.6.9 4.1.9 1.4 0 3.5-.3 3.5-2 0-2.7-6.4-1.7-6.4-6.3 0-4.3 3.8-5.5 7.4-5.5 2.1.2 4 .4 5.1.9M36.3 2l-3.4 16.5h-4.4l1.5-7.1h-5.3l-1.5 7.1h-4.4L22.1 2h4.4l-1.3 6.3h5.3L31.8 2zM20.5 2 17 18.5h-5.5L8 7.1 5.6 18.5H1.4L5 2h5.5l3.4 11.4L16.3 2zm30.4-2H0v20.5h50.9z" style="fill:#005eb8"/><path d="M1.9 29.2v7.6H0V26.7h2.5l3.8 7.6v-7.6h1.9v10.1H5.8zM13.8 37c-.8 0-1.5-.2-2.1-.5s-1-.8-1.4-1.4c-.3-.6-.5-1.2-.5-2s.2-1.5.5-2.1.8-1.1 1.4-1.4 1.3-.5 2-.5c.8 0 1.4.2 2 .5s1.1.8 1.4 1.4.5 1.3.5 2.1c0 .7-.2 1.4-.5 2s-.8 1-1.4 1.4c-.4.3-1.1.5-1.9.5m1.9-4.1c0-.6-.2-1.2-.5-1.6s-.8-.6-1.4-.6-1 .2-1.4.6c-.3.4-.5 1-.5 1.6 0 .8.2 1.4.5 1.9s.8.7 1.4.7 1.1-.2 1.4-.7.5-1.1.5-1.9m5.3-3.6V31c0-.3.2-.6.3-.8.2-.3.4-.5.7-.7s.6-.3 1-.3c.2 0 .4 0 .6.1v2c-.2-.1-.5-.2-.9-.2-.5 0-.9.2-1.2.7-.3.4-.4 1.1-.4 2.1V37h-1.9v-7.5H21zm6.9 7.7c-.8 0-1.4-.2-1.8-.7q-.6-.6-.6-1.8v-3.8h-1.4v-1.4h1.4v-1.5l1.9-.6v2.1h1.7v1.4h-1.7v3.5c0 .4.1.7.2.9s.4.3.7.3c.4 0 .7-.1.9-.2l.1 1.5c-.4.2-.9.3-1.4.3m6.2-6.3c-.6 0-1 .2-1.3.7s-.4 1.1-.4 1.8v3.6h-1.9V25.9h1.9v4.4c.2-.4.6-.7 1-.9s.9-.3 1.4-.3c.8 0 1.5.3 1.9.8q.6.75.6 2.1v4.7h-1.9v-4.2q0-1.05-.3-1.5c-.2-.2-.5-.3-1-.3m8.7 6.3c-1.2 0-2.2-.3-2.9-1s-1-1.6-1-2.9c0-.7.1-1.4.4-2s.6-1.1 1.2-1.4c.5-.4 1.2-.5 1.9-.5 1.2 0 2.1.4 2.7 1.1s.8 1.9.8 3.4h-5.2c0 .6.3 1 .6 1.4s.9.5 1.5.5c.4 0 .8-.1 1.2-.2s.8-.3 1.2-.5v1.6c-.6.3-1.5.5-2.4.5m-.4-6.4c-.5 0-.9.2-1.2.5s-.5.7-.5 1.3H44c0-.5-.2-1-.5-1.3-.2-.4-.6-.5-1.1-.5m6.7-1.3V31c0-.3.2-.6.3-.8.2-.3.4-.5.7-.7s.6-.3 1-.3c.2 0 .4 0 .6.1v2c-.2-.1-.5-.2-.9-.2-.5 0-.9.2-1.2.7-.3.4-.4 1.1-.4 2.1V37h-1.9v-7.5h1.8zm7.8 1.4c-.6 0-1 .2-1.3.7s-.4 1.1-.4 1.8v3.6h-1.9v-7.5h1.8v1q.9-1.2 2.4-1.2c.8 0 1.5.3 1.9.8q.6.75.6 2.1v4.7h-1.9v-4.2q0-1.05-.3-1.5-.15-.3-.9-.3m13.6.3h4.1v5.4c-1.3.3-2.4.5-3.3.5-1.7 0-3.1-.4-4.1-1.3s-1.5-2.1-1.5-3.7c0-1.1.2-2.1.7-2.9.4-.8 1.1-1.4 1.9-1.9q1.2-.6 3-.6c1 0 2 .1 3 .4l-.1 1.7c-.4-.2-.8-.3-1.3-.4s-.9-.1-1.3-.1c-.7 0-1.4.2-1.9.5s-1 .7-1.3 1.3-.4 1.2-.4 1.9.1 1.3.4 1.9c.3.5.7 1 1.2 1.3s1.1.5 1.8.5c.5 0 .9 0 1.3-.1v-2.6h-2.1V31zM81 35.7c-.2.4-.6.7-1 .9s-.9.3-1.3.3-.9-.1-1.3-.3-.7-.4-1-.8c-.2-.3-.4-.7-.4-1.2 0-.8.3-1.4.9-1.9.6-.4 1.5-.7 2.7-.7H81c0-.6-.1-1-.4-1.2s-.7-.3-1.3-.3c-.4 0-.8.1-1.2.2s-.8.3-1.1.6l-.1-1.7c.4-.2.8-.3 1.2-.4.5-.1.9-.2 1.3-.2 1.1 0 1.9.2 2.5.7.5.5.8 1.3.8 2.4V35c0 .6 0 1.1.1 1.6h-1.7s0-.3-.1-.9m-3-1.1c0 .3.1.5.3.7s.5.2.9.2c.5 0 .9-.2 1.3-.5.3-.4.5-.9.5-1.6v-.1h-.9c-1.4 0-2.1.5-2.1 1.3m14.5-3.9c-.5 0-.8.2-1.1.6-.2.4-.4 1-.4 1.8v3.6h-1.9v-4.6c0-.5-.1-.9-.3-1.1s-.5-.3-.8-.3c-.5 0-.9.2-1.1.6s-.4 1-.4 1.8v3.7h-1.9v-7.5h1.8v1c.3-.4.6-.7 1-.9s.8-.3 1.3-.3c1.1 0 1.8.4 2.2 1.3.2-.4.5-.7.9-1 .4-.2.9-.4 1.4-.4.8 0 1.4.2 1.8.7s.6 1.2.6 2.2v4.7h-1.9V32c0-.5-.1-.9-.3-1.1-.3-.1-.5-.2-.9-.2m6.9-4.8v4.4c.3-.4.6-.6 1-.8s.8-.3 1.3-.3c1 0 1.8.3 2.3 1s.8 1.6.8 2.8-.3 2.1-.8 2.8-1.3 1.1-2.3 1.1c-.5 0-.9-.1-1.3-.3s-.7-.5-1-.8v.9h-1.9V25.9zm3.4 7.1c0-.7-.1-1.2-.4-1.7s-.7-.7-1.2-.7c-.4 0-.7.1-1 .4q-.45.3-.6.9c-.1.4-.2.7-.2 1.1 0 .7.1 1.2.4 1.7s.7.7 1.3.7 1-.2 1.2-.7c.4-.4.5-1 .5-1.7m5.5-7.1v10.9h-1.9V25.9zm4 .2V28h-1.9v-1.9zm0 3.2v7.5h-1.9v-7.5zm5.7 1.4c-.6 0-1 .2-1.3.7s-.4 1.1-.4 1.8v3.6h-1.9v-7.5h1.8v1q.9-1.2 2.4-1.2c.8 0 1.5.3 1.9.8q.6.75.6 2.1v4.7h-1.9v-4.2q0-1.05-.3-1.5-.15-.3-.9-.3m7.8 6.1c-1 0-1.7-.3-2.3-1-.5-.7-.8-1.6-.8-2.7 0-.6.1-1.3.3-1.8.2-.6.6-1.1 1.1-1.5q.75-.6 1.8-.6c.5 0 1 .1 1.3.3.4.2.7.5 1 .9v-1h1.9v6.8c0 1.3-.3 2.2-1 2.9s-1.6 1-2.9 1c-.9 0-1.8-.2-2.6-.5l.2-1.7c.3.2.7.3 1.1.5s.8.2 1 .2c.8 0 1.4-.2 1.7-.7s.5-1.1.5-2v-.2q-.3.6-.9.9c-.5.1-.9.2-1.4.2m2.3-3.8c0-.7-.1-1.2-.4-1.6s-.7-.7-1.2-.7-1 .2-1.3.7c-.3.4-.4 1-.4 1.7 0 .4.1.7.2 1.1q.15.45.6.9c.3.2.5.3.9.3.6 0 1-.2 1.3-.7s.3-1.1.3-1.7m10.5 2.4q.6 0 1.2-.3c.4-.2.6-.5.6-1 0-.3-.1-.6-.4-.8s-.7-.4-1.3-.7c-.6-.2-1.1-.5-1.4-.7q-.6-.3-.9-.9c-.3-.4-.4-.9-.4-1.4 0-1 .3-1.8 1-2.3s1.5-.8 2.5-.8c.9 0 1.7.1 2.4.4l-.2 1.7c-.7-.3-1.4-.4-2.1-.4-.4 0-.8.1-1.1.3s-.5.6-.5 1.1c0 .2.1.4.2.6.2.2.3.3.5.4s.5.2.9.4c.6.2 1 .4 1.4.7q.6.3.9.9c.2.4.4.9.4 1.5 0 1-.3 1.7-1 2.3s-1.6.8-2.8.8c-.5 0-.9 0-1.2-.1s-.8-.2-1.4-.3l.2-1.8c1 .2 1.7.4 2.5.4m9 1.6c-1.2 0-2.2-.3-2.9-1s-1-1.6-1-2.9c0-.7.1-1.4.4-2s.6-1.1 1.2-1.4c.5-.4 1.2-.5 1.9-.5 1.2 0 2.1.4 2.7 1.1s.8 1.9.8 3.4h-5.2c0 .6.3 1 .6 1.4.4.3.9.5 1.5.5.4 0 .8-.1 1.2-.2s.8-.3 1.2-.5v1.6c-.6.3-1.4.5-2.4.5m-.4-6.4c-.5 0-.9.2-1.2.5s-.5.7-.5 1.3h3.3c0-.5-.2-1-.5-1.3-.2-.4-.6-.5-1.1-.5m6.8-1.3V31c0-.3.2-.6.3-.8.2-.3.4-.5.7-.7s.6-.3 1-.3c.2 0 .4 0 .6.1v2c-.2-.1-.5-.2-.9-.2-.5 0-.9.2-1.2.7s-.4 1.1-.4 2.1V37h-1.9v-7.5h1.8zm5.1 0 1.9 5.4 1.8-5.4h1.9l-2.8 7.5h-2.2l-2.8-7.5zm8.7-3.2V28h-1.9v-1.9zm0 3.2v7.5h-1.9v-7.5zm5.3 7.7c-1.2 0-2.1-.3-2.7-1-.7-.7-1-1.7-1-2.9 0-.7.1-1.4.4-2s.7-1 1.3-1.4c.5-.3 1.2-.5 1.9-.5s1.3.1 1.9.2l-.2 1.5c-.4-.2-.8-.3-1.3-.3-.6 0-1.1.2-1.4.7-.4.4-.5 1-.5 1.7s.2 1.3.5 1.8c.4.4.8.7 1.5.7.2 0 .5 0 .7-.1.3-.1.5-.1.8-.3l.1 1.6c-.6.2-1.3.3-2 .3m6.6 0c-1.2 0-2.2-.3-2.9-1s-1-1.6-1-2.9c0-.7.1-1.4.4-2s.6-1.1 1.2-1.4c.5-.4 1.2-.5 1.9-.5 1.2 0 2.1.4 2.7 1.1s.8 1.9.8 3.4h-5.2c0 .6.3 1 .6 1.4.4.3.9.5 1.5.5.4 0 .8-.1 1.2-.2s.8-.3 1.2-.5v1.6c-.5.3-1.4.5-2.4.5m-.3-6.4c-.5 0-.9.2-1.2.5s-.5.7-.5 1.3h3.3c0-.5-.2-1-.5-1.3-.2-.4-.6-.5-1.1-.5" style="fill:#231f20"/></svg>