<svg xmlns="http://www.w3.org/2000/svg" xml:space="preserve" id="Layer_1" x="0" y="0" version="1.1" viewBox="0 0 300 109.2"><style>.st0{fill:#0e383a}.st1{fill:#f99745}.st2{fill:#e85855}.st3{fill:#4472ca}</style><circle cx="54.1" cy="54.1" r="54.1" class="st0"/><path d="M140.7 34.3V9h-10.5V6.9h23.2V9H143v25.3zM160.9 22h5.9v-1.8c0-3.8-2-5.3-5.7-5.3-2.8 0-5.3.4-6 4.2h-.1l-1.8-.4c.8-5.3 5.2-5.6 8.1-5.6 4 0 7.6 1.7 7.6 7v14.1h-2v-3.7h-.1c-1.5 2.9-4.3 4.1-7.5 4.1-3.7 0-6.9-2.1-6.9-6.2.1-5.1 4.2-6.4 8.5-6.4m5.9 1.8h-5.7c-3.7 0-6.4.8-6.4 4.6 0 2.8 2 4.4 5.1 4.4 3.2 0 7-2.4 7-7.1zm16.5-10.6c4.7 0 8.4 2.5 8.4 7.2l-2.1.2c0-3.3-2.5-5.6-6.3-5.6-4.9 0-7.4 3.5-7.4 8.9s2.7 9 7.4 9c4 0 6.3-2.3 6.6-5.7l2.1.2c-.4 5.2-4 7.4-8.6 7.4-5.8 0-9.6-4-9.6-10.9-.1-6.9 3.7-10.7 9.5-10.7m15.5 11.5 10.6-11h2.7l-7.5 7.8 8 12.8h-2.5l-7-11.4-4.3 4.4v7h-2.1V6.9h2.1zm17.6 9.6V6.9h2.1v27.4zm10.8-24.5h-2.3V6.9h2.3zm-.1 24.5H225V13.6h2.1zm8.2-20.7v3.7h.2c1.2-3 4.3-4.2 7.4-4.2 4.5 0 7.3 2.6 7.3 7.3v13.8H248V20.6c0-3.3-1.6-5.6-5.6-5.6-5.1 0-7 3.9-7 7.3v12h-2.1V13.6zm28.1 14.2c-1.6 0-3.1-.3-4.2-1-1.1.6-1.5 1.5-1.5 2.3 0 1.2 1.1 2.1 3.1 2.1h5.9c4.2 0 6.5 1.5 6.5 4.8 0 4.1-3.2 6.3-9.6 6.3-6.7 0-9-2-9-5.4 0-1.7 1.1-3.8 3.8-4.4v-.1c-1.7-.3-2.8-1.5-2.8-3.1 0-1.2.7-2.5 2.3-3.3-1.5-1.2-2.4-3.2-2.4-5.6 0-4.4 3-7.3 8-7.3 1.2 0 2.5.2 3.4.6h6.6v1.7h-4.2c1.4 1.2 2.2 2.9 2.2 5.2-.1 4.6-3.3 7.2-8.1 7.2m-2.4 5.4c-3.1 0-4.3 1.9-4.3 3.6 0 2.4 1.7 3.8 6.9 3.8 5.4 0 7.3-1.5 7.3-4.4 0-1.9-1.5-3-3.7-3zm2.4-7.1c3.6 0 5.8-1.8 5.8-5.6s-2.2-5.6-5.8-5.6-5.7 1.8-5.7 5.6c-.1 3.8 2.1 5.6 5.7 5.6M138 40.2c6.2 0 11.3 2.5 12 9.1l-4.6.8c-.4-3.4-3-5.9-7.3-5.9-5.4 0-8.5 3.4-8.5 10.1 0 6.5 3.6 9.8 8.5 9.8 3.8 0 7.7-2.3 7.7-5.7V57h-6.9v-3.9h11.6V68h-4v-3.6c-2.1 2.6-5.4 4-9.1 4-7.4 0-12.7-5.3-12.7-14.2 0-7.9 4.5-14 13.3-14m24.8 15h4.4V54c0-2.5-1.6-3.8-4.1-3.8-1.9 0-4.2.6-4.4 3.3h-.2l-3.8-1c.3-5 5.3-6 8.7-6 4.7 0 8.5 2.1 8.5 7.9V68h-4v-3.3h-.2c-1.2 2.1-3.5 3.6-6.8 3.6-3.8 0-6.9-2.1-6.9-6.4-.1-5.2 4.3-6.7 8.8-6.7m4.3 3.3h-4c-2.8 0-4.6.8-4.6 3.1 0 2 1.4 3 3.4 3 2.3 0 5.2-1.5 5.2-4.4zm22.8-4c0-2.6-1.1-4.2-3.5-4.2-3.4 0-5 2.9-5 5.9V68h-4.6V47.1h4.2v3.3h.2c1.3-2.6 3.7-3.7 6.5-3.7 3 0 5.2 1.5 6.1 4.2 1.4-3 3.9-4.2 6.7-4.2 4.2 0 6.9 2.6 6.9 7.5V68h-4.6V54.5c0-2.7-1.1-4.2-3.5-4.2-3.4 0-4.7 2.6-4.8 5.5V68h-4.6zm27.3-13.8v9.4c1.4-2.3 4.1-3.4 6.6-3.4 5 0 8.8 3.3 8.8 10.9 0 7.7-3.8 10.9-8.8 10.9-2.9 0-5.5-1.1-7-3.9V68h-4.3V40.7zm10.7 16.9c0-4.9-1.7-7.4-5.3-7.4-3.2 0-5.5 2.1-5.5 7.4s2.3 7.3 5.5 7.3c3.5 0 5.3-2.3 5.3-7.3m9 10.4V40.7h4.6V68zm14.7-23.5h-4.9v-3.8h4.9zm-.2 23.5h-4.6V47.1h4.6zm9.4-20.9v3.3h.2c1.3-2.6 4.2-3.7 6.9-3.7 4.3 0 7.4 2.5 7.4 7.5V68h-4.6V54.5c0-2.5-1.1-4.2-4-4.2-3.6 0-5.4 2.9-5.4 5.9V68h-4.6V47.1zm27.8 14.5c-1.2 0-2.5-.2-3.7-.6-.8.4-1.1 1.1-1.1 1.7 0 .8.8 1.5 2.3 1.5h5.9c4.3 0 7.1 1.6 7.1 5.5 0 4.2-3.5 6.5-10.3 6.5-7.5 0-10-2-10-5.2 0-2 1.1-3.5 3.5-4v-.1c-1.7-.4-2.7-1.9-2.7-3.4 0-1.3.6-2.9 2.6-3.8-1.5-1.2-2.5-3.1-2.5-5.6 0-4.6 3.2-7.5 8.8-7.5 1.4 0 3.1.3 3.8.6h7.6v3.5h-3.8c.8 1 1.3 2.1 1.3 3.6 0 5.1-3.9 7.3-8.8 7.3m-1.9 6.4c-2.2 0-3.1 1.2-3.1 2.5 0 1.7 1.3 2.3 5.2 2.3 4.1 0 5.6-.6 5.6-2.6 0-1.4-1.1-2.1-3-2.1h-4.7zm1.9-9.8c2.8 0 4.1-1.5 4.1-4.1s-1.3-4.1-4.1-4.1c-2.7 0-4.1 1.5-4.1 4.1s1.3 4.1 4.1 4.1M174 93.2c0-7.8-18.1-2.2-18.1-12.6 0-4.9 4.1-7.5 9.8-7.5 5.5 0 10.1 2.1 10.4 7.7l-2 .5h-.1c-.4-4.7-4-6.1-8.4-6.1-4.2 0-7.3 1.7-7.3 5.4 0 7.9 18.1 2.3 18.1 12.4 0 6.6-5.5 8.5-10.4 8.5-5.4 0-10.3-2-10.6-7.7l2-.6h.2c.4 4.8 4.2 6.2 8.5 6.2 3.7.1 7.9-1.1 7.9-6.2m9.1-12.8v-5.1h2.1v5.1h7.1v1.8h-7.1v14.4c0 2.4 1 3.1 2.9 3.1.9 0 2.2-.3 3.3-.7l.3 1.9c-1 .4-3.1.6-4.1.6-2.7 0-4.5-1-4.5-4.6V82.2h-4.3v-1.8zm14.9-3.8h-2.3v-2.9h2.3zm-.1 24.4h-2.1V80.4h2.1zm13.5-6.4c-1.6 0-3.1-.3-4.2-1-1.1.6-1.5 1.5-1.5 2.3 0 1.2 1.1 2.1 3.1 2.1h5.9c4.2 0 6.5 1.5 6.5 4.8 0 4.1-3.2 6.3-9.6 6.3-6.7 0-9-2-9-5.4 0-1.7 1.1-3.8 3.8-4.4v-.1c-1.7-.3-2.8-1.5-2.8-3.1 0-1.2.7-2.5 2.3-3.3-1.5-1.2-2.4-3.2-2.4-5.6 0-4.4 3-7.3 8-7.3 1.2 0 2.5.2 3.4.6h6.6v1.7h-4.2c1.4 1.2 2.2 2.9 2.2 5.2-.1 4.6-3.3 7.2-8.1 7.2M209 100c-3.1 0-4.3 1.9-4.3 3.6 0 2.4 1.7 3.8 6.9 3.8 5.4 0 7.3-1.5 7.3-4.4 0-1.9-1.5-3-3.7-3zm2.4-7.1c3.6 0 5.8-1.8 5.8-5.6s-2.2-5.6-5.8-5.6-5.7 1.8-5.7 5.6 2.1 5.6 5.7 5.6m16.1-12.5v3.7h.2c1.2-3 3.7-4.2 6.8-4.2 3.4 0 5.7 1.7 6.3 4.8 1.1-3.5 4-4.8 7-4.8 4.4 0 6.8 2.6 6.8 7.3V101h-2.1V87.4c0-3.2-1.2-5.7-5.1-5.7-4.6 0-6.2 3.6-6.3 6.8V101H239V87.4c0-3.2-1.1-5.7-4.8-5.7-4.7 0-6.6 4-6.6 7.3v12h-2.1V80.4zm40.1 8.4h5.9V87c0-3.8-2-5.3-5.7-5.3-2.8 0-5.3.4-6 4.2h-.1l-1.8-.4c.8-5.3 5.2-5.6 8-5.6 4 0 7.6 1.7 7.6 7V101h-2v-3.7h-.1c-1.5 2.9-4.3 4.1-7.5 4.1-3.7 0-6.9-2.1-6.9-6.2.2-5.1 4.3-6.4 8.6-6.4m5.9 1.8h-5.7c-3.7 0-6.4.8-6.4 4.6 0 2.8 2 4.4 5.1 4.4 3.2 0 7-2.4 7-7.1z" class="st0"/><path d="M34.1 84c-4.4 0-7.9-3.6-7.9-7.9v-26c0-4.4 3.6-7.9 7.9-7.9H42v33.9c0 4.4-3.5 7.9-7.9 7.9" class="st1"/><path d="M75.7 84c-4.4 0-7.9-3.6-7.9-7.9V42.2h7.9c4.4 0 7.9 3.6 7.9 7.9v26c.1 4.4-3.5 7.9-7.9 7.9" class="st2"/><circle cx="75.7" cy="30.4" r="7.9" class="st2"/><path d="M54.9 42.2h14.3v8.4H54.9z" class="st2"/><circle cx="34.1" cy="30.4" r="7.9" class="st1"/><path d="M37.6 42.2h17.3v8.4H37.6z" class="st1"/><path d="M54.9 89c-5.3 0-9.7-4.3-9.7-9.7V42.1c0-1.7 1.4-3.1 3.1-3.1h13.1c1.7 0 3.1 1.4 3.1 3.1v37.2c.1 5.3-4.2 9.7-9.6 9.7" class="st3"/><circle cx="55.1" cy="25.5" r="9.3" class="st3"/><path d="M55.1 16.2v18.6c5.1 0 9.3-4.2 9.3-9.3s-4.2-9.3-9.3-9.3m6.4 22.7H55v50c5.3 0 9.7-4.3 9.7-9.7V42.1c-.1-1.8-1.5-3.2-3.2-3.2" style="opacity:.2;fill:#1d1d1b"/></svg>