<svg xmlns="http://www.w3.org/2000/svg" width="159.152" height="56.818"><g data-name="Group 22"><g data-name="Group 20"><path d="M107.803 5.775A19.854 19.854 0 0 0 93.244.002a19.339 19.339 0 0 0-14.786 6.33 23.575 23.575 0 0 0 .126 30.105 19.555 19.555 0 0 0 14.838 6.3 20.945 20.945 0 0 0 12.027-3.367 16.192 16.192 0 0 0 6.583-9.546l.4-1.6h-9.14l-.329.81a7.73 7.73 0 0 1-3.418 3.925 12.25 12.25 0 0 1-6.127 1.443 10.484 10.484 0 0 1-7.8-3.19 13.016 13.016 0 0 1-3.291-7.343h30.51l.127-1.114c.076-.785.152-2.152.177-3.165a19.814 19.814 0 0 0-5.338-13.815Zm-24.839 10.1a11.624 11.624 0 0 1 3.368-5.418 10.218 10.218 0 0 1 6.912-2.431 10.326 10.326 0 0 1 7.318 2.608 9.625 9.625 0 0 1 2.861 5.241Z" data-name="Path 78"/></g><g data-name="Group 21"><path d="M138.01.027c-12.2 0-21.066 8.963-21.066 21.344 0 12.407 8.862 21.37 21.066 21.37 12.254 0 21.142-8.963 21.142-21.37 0-12.381-8.887-21.344-21.142-21.344Zm0 34.308c-7.064 0-11.8-5.191-11.8-12.964 0-7.748 4.735-12.938 11.8-12.938s11.8 5.19 11.8 12.938c-.001 7.774-4.735 12.964-11.8 12.964Z" data-name="Path 79"/></g><path d="M31.016.634v3.317A18.221 18.221 0 0 0 19.672-.001c-6.2 0-11.216 2.2-14.584 5.952C1.72 9.672-.001 14.838-.001 20.611c0 5.748 1.721 10.887 5.116 14.609 3.393 3.7 8.431 5.9 14.711 5.9a20.221 20.221 0 0 0 8.152-1.645 14.558 14.558 0 0 0 3.04-1.823v2.049a9.6 9.6 0 0 1-.326 2.432 8.332 8.332 0 0 1-2.51 4.051 11.116 11.116 0 0 1-6.983 2.519c-.193.007-.391.011-.588.011s-.37 0-.552-.011h-12.5v8.114h13.057a23.918 23.918 0 0 0 6.3-.811 18.641 18.641 0 0 0 7.655-4.1 16.567 16.567 0 0 0 5.224-9.772 19.564 19.564 0 0 0 .246-3.116V.634Zm-2.508 28.838a10.56 10.56 0 0 1-8.052 3.242 10.672 10.672 0 0 1-8.152-3.242c-1.925-2.049-3.04-5.038-3.04-8.861 0-3.85 1.115-6.887 3.04-8.939a10.671 10.671 0 0 1 8.152-3.24 10.559 10.559 0 0 1 8.052 3.24 12.852 12.852 0 0 1 3.038 8.939 12.688 12.688 0 0 1-3.036 8.861Z" data-name="Path 80"/><path d="M20.611 48.715c-.186 0-.37 0-.552-.011h1.14c-.193.007-.39.011-.588.011Z" data-name="Path 81"/><path d="M71.571.002v8.677h-5.586a14.543 14.543 0 0 0-.694-.018c-.177 0-.355.007-.528.018-5.819.373-9.422 6.952-9.422 17.352v16.1h-9.115V.631h9.116v4.863a16.089 16.089 0 0 1 7.553-5 11.865 11.865 0 0 1 3.308-.49Z" data-name="Path 82"/><path d="M65.985 8.679h-1.222c.173-.011.35-.018.528-.018.233 0 .463.007.694.018Z" data-name="Path 83"/></g></svg>