<svg xmlns="http://www.w3.org/2000/svg" width="33" height="32" fill="none"><g clip-path="url(#a)"><path fill="#FBBF24" d="M15.577 3.02c.341-.822 1.505-.822 1.846 0l3.075 7.39a1 1 0 0 0 .843.614l7.98.64c.886.07 1.245 1.177.57 1.756l-6.08 5.207a1 1 0 0 0-.322.992l1.858 7.786c.206.866-.735 1.55-1.494 1.086l-6.832-4.173a1 1 0 0 0-1.042 0l-6.832 4.173c-.759.463-1.7-.22-1.494-1.086l1.858-7.786a1 1 0 0 0-.322-.992l-6.08-5.207c-.675-.579-.316-1.685.57-1.757l7.98-.64a1 1 0 0 0 .843-.612z"/></g><defs><clipPath id="a"><path fill="#fff" d="M.5 0h32v32H.5z"/></clipPath></defs></svg>