<svg xmlns="http://www.w3.org/2000/svg" width="171.393" height="108.628"><defs><clipPath id="a"><path fill="none" d="M0 0h171.393v108.628H0z" data-name="Rectangle 156588"/></clipPath></defs><g clip-path="url(#a)" data-name="Full logo"><path fill="#cfc8e0" fill-rule="evenodd" d="m133.507 0 2.468 4.1c-9.695 8.57-20.448 22.358-32.259 40.8-11.635 18.26-20.8 35.775-27.147 51.426l-4.936 4.659c-3.7 3.167-6.7 6.148-8.461 7.639-.352-2.609-1.587-6.521-3.7-12.67l-2.116-5.59c-2.468-7.826-4.936-13.415-7.4-16.956-2.115-3.54-4.583-6.149-7.579-7.639 4.584-6.148 9.166-9.129 13.4-9.129 3.35 0 7.052 6.148 11.283 17.328l2.115 5.59C77.098 64.283 86.617 48.444 98.426 34.1c11.988-14.721 23.8-26.461 35.081-34.1" data-name="Path 10528"/><path fill="#533884" fill-rule="evenodd" d="M71.095 60.567a17.4 17.4 0 0 1-5.11 1.934 15.7 15.7 0 0 1-5.108.723 17.2 17.2 0 0 1-8.8-2.485 30.9 30.9 0 0 1-8.63-6.836 10.84 10.84 0 0 0 4.937 2.107 22.7 22.7 0 0 0 5.971.863 24.3 24.3 0 0 0 5.11-.691 15.2 15.2 0 0 0 4.936-1.726l-1.036-3 6.7 5.937ZM47.309 52.66a16.43 16.43 0 0 1-7.6-5.971 14.8 14.8 0 0 1-2.451-8.8 17.15 17.15 0 0 1 16.92-17.126 24 24 0 0 1 3.694.345 17 17 0 0 1 3 1.243l1.069-3 7.734 7.249-1.38 3a11.4 11.4 0 0 0-3.729-1.762 12.3 12.3 0 0 0-3.694-.552 16.27 16.27 0 0 0-16.4 16.4 14.6 14.6 0 0 0 .729 4.934 11.7 11.7 0 0 0 2.107 4.039m29.448-14.98V21.66h3.867c2.658 0 4.763.519 6.006 1.589a7.54 7.54 0 0 1 2.624 5.109c-.519-.173-1.035-.345-1.761-.519-.691 0-1.588-.207-2.452-.207v9.011a9.7 9.7 0 0 1-2.658.863 24 24 0 0 1-3.694.173Zm0 18.331v-15.5h1.762c4.384 0 7.939-.863 10.218-2.831a10.38 10.38 0 0 0 3.521-8.285 8.3 8.3 0 0 0-.518-2.969 14.4 14.4 0 0 0-1.588-3.175 32 32 0 0 1 6.524 6.525 11.33 11.33 0 0 1-1.415 14.81 13.96 13.96 0 0 1-9.527 3.349h-.692V63.22h-4.073l-7.387-7.21Zm33.145 7.21-6.87-7.214h3.866a59 59 0 0 0 8.631-.518 20.7 20.7 0 0 0 6.006-2.278 15.6 15.6 0 0 0 5.973-6.18 18.55 18.55 0 0 0 2.14-8.8 20.3 20.3 0 0 0-1.07-6.352 16.9 16.9 0 0 0-3-5.455 32.6 32.6 0 0 1 7.94 8.8 20.44 20.44 0 0 1 2.451 10.219c0 5.109-1.762 9.528-5.455 12.669-3.694 3.348-8.63 5.108-14.464 5.108Zm-4.074-9.838V21.66h5.662a13.84 13.84 0 0 1 7.906 2.107 17.9 17.9 0 0 1 5.661 7.042 20 20 0 0 0-3.9-1.208 11 11 0 0 0-3.355-.553h-3.349v23.82a15.6 15.6 0 0 1-2.969.346 27 27 0 0 1-3.728.173Z" data-name="Path 10529"/><path fill="none" stroke="#533884" stroke-width="2.354" d="M2.43 88.456h168.854" data-name="Path 10547"/><path fill="#1a1818" fill-rule="evenodd" d="M85.7 72.688a4.2 4.2 0 0 0-.946.21 2.7 2.7 0 0 0-1.1.7 1.66 1.66 0 0 0-.437 1.167v.919l-.667.918h.667v4.469a1.5 1.5 0 0 1-.1.575.8.8 0 0 1-.413.4v.054h2.39v-.027a1 1 0 0 1-.39-.384 1.5 1.5 0 0 1-.168-.553 7 7 0 0 1-.038-.829V76.61h1.2v-.918h-1.2v-1a1.37 1.37 0 0 1 .213-.842.83.83 0 0 1 .689-.273 1.5 1.5 0 0 1 .3.029Zm-5.738 8.274v-4.1a2.1 2.1 0 0 0-.087-.674.8.8 0 0 0-.429-.44v-.058a7 7 0 0 1 .736.027 4 4 0 0 0 .67-.071.6.6 0 0 0 .332-.18h.058v5.218a3.4 3.4 0 0 0 .087.886.8.8 0 0 0 .452.478l-.028.054h-2.311v-.054a.86.86 0 0 0 .422-.438 2 2 0 0 0 .094-.649m.571-7.848a.84.84 0 0 1 .611.261.82.82 0 0 1 .264.6.84.84 0 0 1-.262.616.85.85 0 0 1-.614.259.82.82 0 0 1-.612-.255.85.85 0 0 1-.251-.619.83.83 0 0 1 .114-.429.9.9 0 0 1 .311-.317.8.8 0 0 1 .438-.119m-4.8 6.929V76.61h-.946v-.513q1.655-.226 1.655-2.462h.543v2.057H78a2.5 2.5 0 0 0 .824-.083h.027v1.282h-.027a1 1 0 0 0-.8-.281h-1.048v2.869a4.8 4.8 0 0 0 .1 1 1.12 1.12 0 0 0 .47.711 1.65 1.65 0 0 0 .684.181 2.5 2.5 0 0 0 .626-.138l-.739.987a4 4 0 0 1-.57.027 1.58 1.58 0 0 1-1.378-.623 2.64 2.64 0 0 1-.446-1.574Zm-4.621.919V76.97a2.5 2.5 0 0 0-.094-.793.88.88 0 0 0-.418-.434v-.053h.357q.216-.011.574-.018a3.5 3.5 0 0 0 .533-.041.7.7 0 0 0 .272-.109h.056v1.044a1.6 1.6 0 0 1 .837-.819 3.8 3.8 0 0 1 1.308-.2v1.309a.83.83 0 0 0-.7-.253 2.7 2.7 0 0 0-.572.085q-.873.287-.874 1.767v2.477a1.9 1.9 0 0 0 .1.684.92.92 0 0 0 .441.43v.054H70.59v-.054a.8.8 0 0 0 .426-.432 2.1 2.1 0 0 0 .086-.654m-6.362-3.1h3.6a1.43 1.43 0 0 0-.572-1.064 1.94 1.94 0 0 0-1.182-.374 2.1 2.1 0 0 0-.837.173 1.8 1.8 0 0 0-.68.5 1.45 1.45 0 0 0-.333.767m-1.554.989a3.5 3.5 0 0 1 .387-1.607 3.1 3.1 0 0 1 1.185-1.25 3.74 3.74 0 0 1 1.934-.5 3.2 3.2 0 0 1 1.555.391 2.9 2.9 0 0 1 1.128 1.12 3.3 3.3 0 0 1 .416 1.682h-5.101a3 3 0 0 0 .246 1.176 2.43 2.43 0 0 0 .794.995 2.7 2.7 0 0 0 1.41.484 2 2 0 0 1 .346.027 5.3 5.3 0 0 0 1.194-.193 3.3 3.3 0 0 0 1.088-.53h.027l-.682 1.294a5.5 5.5 0 0 1-1.918.359 4.9 4.9 0 0 1-1.951-.394 3.5 3.5 0 0 1-1.478-1.181 3.2 3.2 0 0 1-.576-1.873m-8.409-.908q.002-.048-.007-.16c-.009-.112-.007-.133-.007-.17a5.5 5.5 0 0 1 .337-1.958 4.5 4.5 0 0 1 .98-1.559 4.4 4.4 0 0 1 1.556-1.031 5.5 5.5 0 0 1 2.039-.366 9.3 9.3 0 0 1 2.5.39v1.571a4.9 4.9 0 0 0-2.671-.8 3.17 3.17 0 0 0-1.724.514 3 3 0 0 0-1.074 1.26 4.2 4.2 0 0 0-.374 1.678 4.4 4.4 0 0 0 .256 1.428 3.9 3.9 0 0 0 .721 1.247 3.4 3.4 0 0 0 1.161.872 3.6 3.6 0 0 0 1.547.323 5.96 5.96 0 0 0 2.841-.905h.04l-.719 1.633a6.5 6.5 0 0 1-2.311.415 6.5 6.5 0 0 1-2.4-.483 4.4 4.4 0 0 1-1.868-1.446 4.46 4.46 0 0 1-.826-2.454Zm-11.106 3.076q.3.055.975.11a5.6 5.6 0 0 0 1.849-.342 3.4 3.4 0 0 0 1.472-1.043 3.02 3.02 0 0 0 .647-1.828v-.181c0-.076.008-.134.008-.166a3.87 3.87 0 0 0-.549-2.2 2.86 2.86 0 0 0-1.373-1.113 5 5 0 0 0-1.764-.307 6.4 6.4 0 0 0-1.265.142Zm-1.419-.335V74.27q0-1.07-.629-1.3v-.027h3.453a6.1 6.1 0 0 1 2.818.6 4.03 4.03 0 0 1 1.741 1.667 4.96 4.96 0 0 1 .58 2.417 4.7 4.7 0 0 1-.626 2.173 4.3 4.3 0 0 1-1.769 1.667 6.1 6.1 0 0 1-2.924.64h-3.273v-.054a1.45 1.45 0 0 0 .629-1.364m-7.1.027v-6.281q0-1.2-.629-1.46v-.027H37.9a5.2 5.2 0 0 1 1.21.138 3.4 3.4 0 0 1 1.006.425 2.16 2.16 0 0 1 .711.748 2.3 2.3 0 0 1 .29 1.08 2.25 2.25 0 0 1-.427 1.379 2.9 2.9 0 0 1-1.024.882 3.4 3.4 0 0 1-1.113.37 4 4 0 0 0-.544.058 2.4 2.4 0 0 1-1-.253 2.9 2.9 0 0 0 1.173-.259 2.4 2.4 0 0 0 .951-.749 1.83 1.83 0 0 0 .371-1.135 1.49 1.49 0 0 0-.545-1.283 2.37 2.37 0 0 0-1.433-.4 5.5 5.5 0 0 0-.961.084v6.623a1.9 1.9 0 0 0 .162.848 1.34 1.34 0 0 0 .548.546l.026.054h-2.77v-.054q.63-.263.629-1.337m-9.315-2.773q.002-.048-.006-.16c-.008-.112-.008-.133-.008-.17a5.5 5.5 0 0 1 .336-1.958 4.5 4.5 0 0 1 .98-1.559 4.4 4.4 0 0 1 1.553-1.031 5.5 5.5 0 0 1 2.039-.366 9.3 9.3 0 0 1 2.5.39v1.574a4.9 4.9 0 0 0-2.67-.8 3.16 3.16 0 0 0-1.724.514 3 3 0 0 0-1.076 1.26 4.2 4.2 0 0 0-.374 1.678 4.4 4.4 0 0 0 .256 1.428 4 4 0 0 0 .723 1.247 3.4 3.4 0 0 0 1.161.872 3.6 3.6 0 0 0 1.545.323 5.96 5.96 0 0 0 2.843-.905h.04l-.716 1.633a6.5 6.5 0 0 1-2.311.415 6.4 6.4 0 0 1-2.4-.483 4.4 4.4 0 0 1-1.866-1.449 4.5 4.5 0 0 1-.827-2.454Zm-9.508-.081h3.6a1.44 1.44 0 0 0-.572-1.064 1.94 1.94 0 0 0-1.181-.374 2.1 2.1 0 0 0-.837.173 1.8 1.8 0 0 0-.681.5 1.45 1.45 0 0 0-.333.767m-1.555.989a3.5 3.5 0 0 1 .389-1.607 3.1 3.1 0 0 1 1.184-1.25 3.75 3.75 0 0 1 1.935-.5 3.2 3.2 0 0 1 1.554.391 2.9 2.9 0 0 1 1.13 1.12 3.35 3.35 0 0 1 .415 1.682h-5.102a3 3 0 0 0 .246 1.176 2.43 2.43 0 0 0 .794.995 2.7 2.7 0 0 0 1.409.484 2 2 0 0 1 .345.027 5.3 5.3 0 0 0 1.2-.193 3.2 3.2 0 0 0 1.087-.53h.028l-.68 1.294a5.5 5.5 0 0 1-1.92.359 4.9 4.9 0 0 1-1.95-.394 3.5 3.5 0 0 1-1.479-1.181 3.2 3.2 0 0 1-.577-1.873M7.85 80.88v-6.818a1.8 1.8 0 0 0-.1-.661.9.9 0 0 0-.44-.425v-.026h1.067a.82.82 0 0 0 .7-.253H9.1v3.7a1.94 1.94 0 0 1 .9-.656 3.3 3.3 0 0 1 1.176-.221q2.366 0 2.368 2.476v2.825a2.3 2.3 0 0 0 .1.8.97.97 0 0 0 .441.427v.054h-2.311v-.054a.87.87 0 0 0 .41-.412 1.7 1.7 0 0 0 .107-.648v-2.5q0-2.033-1.588-2.032h-.014a1.57 1.57 0 0 0-1.209.41 2.04 2.04 0 0 0-.38 1.382v2.6a2.4 2.4 0 0 0 .1.768.83.83 0 0 0 .443.43v.054H7.309v-.054a.98.98 0 0 0 .541-1Zm-4.912-.141v-6.79h-1.17a2.35 2.35 0 0 0-1.71.541H0l.487-1.655h.057a1.3 1.3 0 0 0 .628.112H6.5a1.56 1.56 0 0 0 .723-.112h.058l-.433 1.655h-.057a.68.68 0 0 0-.406-.428 2.2 2.2 0 0 0-.763-.113h-1.28v6.735a2 2 0 0 0 .137.765 1.32 1.32 0 0 0 .6.6v.054h-2.77v-.054q.629-.206.629-1.307Z" data-name="Path 10530"/><path fill="#1a1818" fill-rule="evenodd" d="M85.696 72.688q.19-.02.38-.02.311 0 1.083.055l-.958 1.061a1.6 1.6 0 0 0-.505-.183Zm0 3h.393l.255-.083h.055v1.227h-.055q-.127-.225-.627-.226H85.7Zm33.193 5.162v-3.992a2 2 0 0 0-.106-.662.83.83 0 0 0-.439-.453v-.056a8 8 0 0 1 .846.028 2.4 2.4 0 0 0 .919-.194h.03v1.084a2.4 2.4 0 0 1 .733-.735 2.1 2.1 0 0 1 1.231-.349q2.474.028 2.476 2.392v2.73a1 1 0 0 1-.032.238 2.7 2.7 0 0 0 .138.731.8.8 0 0 0 .431.438v.054h-2.308v-.061a1.1 1.1 0 0 0 .358-.329.9.9 0 0 0 .132-.368 5 5 0 0 0 .026-.583v-2.141q0-2.195-1.685-2.2a1.35 1.35 0 0 0-1.185.454 2.3 2.3 0 0 0-.316 1.315v2.713a2.3 2.3 0 0 0 .083.713.9.9 0 0 0 .459.428v.054h-2.309v-.056a1.04 1.04 0 0 0 .43-.5 2.5 2.5 0 0 0 .085-.7m-6.986-2.115a2.93 2.93 0 0 0 .61 1.858 1.92 1.92 0 0 0 1.505.8.24.24 0 0 1 .108-.029 2.1 2.1 0 0 0 1.155-.352 1.95 1.95 0 0 0 .7-.845 2.75 2.75 0 0 0 .226-1.112 3.1 3.1 0 0 0-.152-.974 2.8 2.8 0 0 0-.439-.847 2.1 2.1 0 0 0-.7-.591 2 2 0 0 0-.923-.218 2.6 2.6 0 0 0-.916.226 1.9 1.9 0 0 0-.81.72 2.46 2.46 0 0 0-.358 1.364m-1.42.179a3.6 3.6 0 0 1 .413-1.622 3.17 3.17 0 0 1 1.224-1.254 4.1 4.1 0 0 1 2.037-.517 3.7 3.7 0 0 1 1.7.407 3.27 3.27 0 0 1 1.284 1.172 3.32 3.32 0 0 1 .2 3.091 3.4 3.4 0 0 1-.8 1.1 3.6 3.6 0 0 1-1.166.73 3.7 3.7 0 0 1-1.364.258 3.9 3.9 0 0 1-1.494-.276 3.2 3.2 0 0 1-1.124-.75 3.2 3.2 0 0 1-.684-1.08 3.4 3.4 0 0 1-.234-1.245Zm-2.681 2.047v-4.1a2.2 2.2 0 0 0-.088-.674.8.8 0 0 0-.43-.44v-.054a7 7 0 0 1 .737.027 4.4 4.4 0 0 0 .669-.071.64.64 0 0 0 .333-.18h.058v5.221a3.4 3.4 0 0 0 .085.887.8.8 0 0 0 .451.478l-.026.054h-2.31v-.059a.85.85 0 0 0 .422-.438 2 2 0 0 0 .1-.649m.568-7.848a.84.84 0 0 1 .613.261.83.83 0 0 1 .264.6.84.84 0 0 1-.262.616.85.85 0 0 1-.615.259.83.83 0 0 1-.611-.255.85.85 0 0 1-.252-.619.84.84 0 0 1 .114-.429.9.9 0 0 1 .311-.317.83.83 0 0 1 .438-.119m-4.8 6.929v-3.429h-.945v-.513q1.655-.226 1.655-2.462h.544v2.057h1.016a2.4 2.4 0 0 0 .823-.083h.026v1.282h-.026a1 1 0 0 0-.8-.281h-1.055v2.869a4.7 4.7 0 0 0 .1 1 1.12 1.12 0 0 0 .468.711 1.65 1.65 0 0 0 .683.181 2.6 2.6 0 0 0 .626-.138l-.737.987a4 4 0 0 1-.571.027 1.58 1.58 0 0 1-1.379-.624 2.64 2.64 0 0 1-.445-1.573Zm-7.65.321a1.55 1.55 0 0 1 .32-1.012 2.5 2.5 0 0 1 .912-.661 7 7 0 0 1 1.052-.3c.511-.117.866-.2 1.058-.259a1.7 1.7 0 0 0 .532-.258.6.6 0 0 0 .166-.217.7.7 0 0 0 .086-.352.67.67 0 0 0-.43-.632 2.1 2.1 0 0 0-.9-.206 4.2 4.2 0 0 0-1.878.545l.917-1.392q.1 0 .437-.042a5 5 0 0 1 .5-.041 3.9 3.9 0 0 1 1.328.217 2.04 2.04 0 0 1 .965.7 1.94 1.94 0 0 1 .355 1.204v2.423a1.44 1.44 0 0 0 .244.941 1.32 1.32 0 0 0 .925.325l-.626.96a2.63 2.63 0 0 1-1.383-.432 1.28 1.28 0 0 1-.439-1.07v-2.174a4.8 4.8 0 0 1-1.23.423 4.6 4.6 0 0 0-1.179.4.82.82 0 0 0-.359.779.96.96 0 0 0 .407.827 1.9 1.9 0 0 0 1.067.315 6 6 0 0 0 1.06-.18l-.822 1.029a6 6 0 0 1-.7.054 2.9 2.9 0 0 1-1.261-.254 2 2 0 0 1-.836-.7 1.7 1.7 0 0 1-.293-.954m-6.347-1.309a3.6 3.6 0 0 1 .321-1.552 3.04 3.04 0 0 1 .878-1.109 3.8 3.8 0 0 1 1.273-.648 5.3 5.3 0 0 1 1.531-.217 6.7 6.7 0 0 1 1.489.166v1.422h-.056a2.15 2.15 0 0 0-1.687-.657 2.5 2.5 0 0 0-1.149.273 2.14 2.14 0 0 0-.86.812 2.43 2.43 0 0 0-.324 1.28 2.3 2.3 0 0 0 .4 1.269 2.8 2.8 0 0 0 1.04.924 3.1 3.1 0 0 0 1.411.355 3.9 3.9 0 0 0 2.078-.682h.039l-.722 1.334a6.1 6.1 0 0 1-1.74.252 4.7 4.7 0 0 1-1.991-.407 3.4 3.4 0 0 1-1.414-1.14 2.8 2.8 0 0 1-.519-1.664Zm-2.657 1.907v-4.1a2.2 2.2 0 0 0-.085-.674.8.8 0 0 0-.43-.44v-.054a7 7 0 0 1 .738.027 4.4 4.4 0 0 0 .67-.071.62.62 0 0 0 .332-.18h.058v5.216a3.4 3.4 0 0 0 .087.887.8.8 0 0 0 .451.478l-.026.054h-2.313v-.059a.86.86 0 0 0 .423-.438 2 2 0 0 0 .093-.649m.571-7.848a.84.84 0 0 1 .613.261.83.83 0 0 1 .263.6.84.84 0 0 1-.262.616.85.85 0 0 1-.615.259.83.83 0 0 1-.611-.255.86.86 0 0 1-.251-.619.83.83 0 0 1 .113-.429.9.9 0 0 1 .312-.317.83.83 0 0 1 .437-.119m78.922 5.474a2.86 2.86 0 0 0 .765 1.978 2.52 2.52 0 0 0 1.882.733 3.7 3.7 0 0 0 1.094-.173 7 7 0 0 0 1.246-.536l-.717 1.286a8 8 0 0 1-1.077.327 4.4 4.4 0 0 1-.937.109 3.68 3.68 0 0 1-2.656-1 3.4 3.4 0 0 1-1.041-2.55 3.64 3.64 0 0 1 .958-2.6 3.23 3.23 0 0 1 2.454-1.015 2.76 2.76 0 0 1 2.184.926 3.77 3.77 0 0 1 .832 2.517Zm.093-.936h3.453a1.67 1.67 0 0 0-.506-1.149 1.6 1.6 0 0 0-1.157-.448 1.76 1.76 0 0 0-1.22.428 1.8 1.8 0 0 0-.573 1.17Zm-3-.825a4.8 4.8 0 0 0-.928-.47 2.4 2.4 0 0 0-.82-.158 2 2 0 0 0-1.557.646 2.44 2.44 0 0 0-.587 1.706 2.6 2.6 0 0 0 .739 1.9 2.5 2.5 0 0 0 1.856.756 3.5 3.5 0 0 0 .981-.149 6.7 6.7 0 0 0 1.158-.479l-.71 1.256a3 3 0 0 1-.786.362 3.3 3.3 0 0 1-.875.116 3.97 3.97 0 0 1-2.768-.987 3.23 3.23 0 0 1-1.089-2.5 3.5 3.5 0 0 1 1.069-2.59 3.62 3.62 0 0 1 2.642-1.053c.165 0 .388.018.665.046s.617.074 1.011.129Zm-6.712 4a2.1 2.1 0 0 0 .109.731 1.26 1.26 0 0 0 .354.513h-2.163a1.3 1.3 0 0 0 .353-.51 2.1 2.1 0 0 0 .111-.732v-4.14a2.2 2.2 0 0 0-.111-.746 1.34 1.34 0 0 0-.352-.519q.568-.013.982-.053a7 7 0 0 0 .718-.1Zm-1.495-7.18a.83.83 0 0 1 .236-.594.8.8 0 0 1 .579-.246.76.76 0 0 1 .565.246.884.884 0 0 1 0 1.191.76.76 0 0 1-.57.244.77.77 0 0 1-.581-.245.83.83 0 0 1-.235-.595m-.331 1.777-2.974 6.873a1.9 1.9 0 0 1-.852-.537 4.7 4.7 0 0 1-.728-1.3l-1.468-3.593a4.8 4.8 0 0 0-.458-.882 2.8 2.8 0 0 0-.532-.561h.2a6 6 0 0 0 .945-.06 1.4 1.4 0 0 0 .555-.181l2.026 5.3 1.572-3.613a3 3 0 0 0 .163-.421 1.1 1.1 0 0 0 .044-.292.7.7 0 0 0-.092-.336 1.7 1.7 0 0 0-.325-.394Zm-7.51 1.251a1 1 0 0 0-.311-.165 1.2 1.2 0 0 0-.353-.052 1.26 1.26 0 0 0-1.072.489 2.32 2.32 0 0 0-.368 1.41v2.481a2.1 2.1 0 0 0 .11.731 1.3 1.3 0 0 0 .349.513h-2.17a1.3 1.3 0 0 0 .35-.51 2.2 2.2 0 0 0 .108-.733v-4.14a2.2 2.2 0 0 0-.11-.744 1.3 1.3 0 0 0-.349-.519h.144c.216 0 .448-.014.687-.037s.507-.063.794-.114l.1 1.06a2.2 2.2 0 0 1 .67-.79 1.5 1.5 0 0 1 .864-.257 2 2 0 0 1 .245.013q.127.016.313.055Zm-9.814 1.921a2.86 2.86 0 0 0 .768 1.978 2.52 2.52 0 0 0 1.881.733 3.7 3.7 0 0 0 1.092-.173 7 7 0 0 0 1.248-.536l-.719 1.286a8 8 0 0 1-1.075.327 4.5 4.5 0 0 1-.939.109 3.67 3.67 0 0 1-2.654-1 3.4 3.4 0 0 1-1.043-2.55 3.63 3.63 0 0 1 .96-2.6 3.22 3.22 0 0 1 2.452-1.015 2.75 2.75 0 0 1 2.184.926 3.78 3.78 0 0 1 .834 2.517Zm.1-.936h3.451a1.67 1.67 0 0 0-.5-1.149 1.6 1.6 0 0 0-1.157-.448 1.77 1.77 0 0 0-1.222.428 1.8 1.8 0 0 0-.572 1.17Zm-8.7 4.21-.446-1.719a6.8 6.8 0 0 0 1.558.824 4.5 4.5 0 0 0 1.5.27 2.54 2.54 0 0 0 1.527-.42 1.29 1.29 0 0 0 .58-1.09 1.3 1.3 0 0 0-.06-.383 1.4 1.4 0 0 0-.174-.361 5.1 5.1 0 0 0-1.693-1.113 39 39 0 0 1-.565-.281 6.3 6.3 0 0 1-1.846-1.284 2.08 2.08 0 0 1-.5-1.395 2.17 2.17 0 0 1 .914-1.834 4.14 4.14 0 0 1 2.51-.68 10 10 0 0 1 1.009.061q.55.06 1.2.192v1.592a4.5 4.5 0 0 0-1.15-.664 3.4 3.4 0 0 0-1.2-.217 2.13 2.13 0 0 0-1.271.347 1.08 1.08 0 0 0-.483.912 1.22 1.22 0 0 0 .378.88 7.1 7.1 0 0 0 1.7 1.026q.07.032.224.11a8.4 8.4 0 0 1 1.667.969 2.3 2.3 0 0 1 .871 1.8 2.55 2.55 0 0 1-1.089 2.072 4.3 4.3 0 0 1-2.723.851 6 6 0 0 1-1.129-.116 11 11 0 0 1-1.314-.348Z" data-name="Path 10531"/><path fill="none" stroke="#402180" stroke-width=".607" d="M134.687 59.548a3.822 3.822 0 1 1 3.821 3.821 3.82 3.82 0 0 1-3.821-3.821Z" data-name="Path 10532"/><path fill="#402180" d="M136.857 57.63h2.066a1.05 1.05 0 0 1 1.122 1.058.94.94 0 0 1-.606.961v.011c.413.108.531.51.558.9a2.1 2.1 0 0 0 .161.907h-.842a4.3 4.3 0 0 1-.136-.919c-.058-.4-.214-.579-.639-.579h-.842v1.5h-.842Zm.842 1.735h.923c.376 0 .581-.162.581-.547s-.2-.532-.581-.532h-.923Z" data-name="Path 10533"/></g></svg>