<svg xmlns="http://www.w3.org/2000/svg" id="Layer_1" data-name="Layer 1" viewBox="0 0 113.39 20.52"><defs><style>.cls-2{fill:#fff}</style></defs><path d="M18 11.58h53.9a1 1 0 0 1 1 1v9.34a9.76 9.76 0 0 1-9.76 9.76H18a1 1 0 0 1-1-1V12.54a1 1 0 0 1 1-1Z" style="fill:#35a8e0" transform="rotate(180 36.545 15.935)"/><path d="M55.1 20.52H1.2a1.19 1.19 0 0 1-1.19-1.19V9.99a10 10 0 0 1 10-10H55.1a1.19 1.19 0 0 1 1.19 1.19v18.15a1.19 1.19 0 0 1-1.19 1.19M9.99.47A9.54 9.54 0 0 0 .46 10v9.34a.73.73 0 0 0 .73.73H55.1a.73.73 0 0 0 .73-.73V1.19a.73.73 0 0 0-.73-.73Z" class="cls-2"/><path d="M19.06 9.54v7.49a.14.14 0 0 1-.14.14h-2.94a.14.14 0 0 1-.14-.14.14.14 0 0 0-.19-.13 6 6 0 0 1-.9.21 7 7 0 0 1-1.11.09 7.1 7.1 0 0 1-2.62-.55 6.8 6.8 0 0 1-2.31-1.53 6.7 6.7 0 0 1-1.51-2.27 7.1 7.1 0 0 1-.5-2.62 7.2 7.2 0 0 1 .5-2.63 6.7 6.7 0 0 1 1.52-2.31 6.8 6.8 0 0 1 2.31-1.53 7 7 0 0 1 5.26 0 6.8 6.8 0 0 1 2.2 1.43.14.14 0 0 1 0 .2l-2.07 2.07a.14.14 0 0 1-.2 0 3.6 3.6 0 0 0-1.15-.73 3.8 3.8 0 0 0-2.84 0 3.6 3.6 0 0 0-1.25.82 3.76 3.76 0 0 0 0 5.33 3.7 3.7 0 0 0 1.11.77 3.8 3.8 0 0 0 1.27.32 3.9 3.9 0 0 0 1.3-.12 3.6 3.6 0 0 0 1.13-.52.14.14 0 0 0 .06-.12v-.48a.14.14 0 0 0-.14-.14H13.2a.14.14 0 0 1-.14-.14V9.54a.14.14 0 0 1 .14-.14h5.71a.14.14 0 0 1 .15.14M30 17.09l-.48-1.44a.14.14 0 0 0-.14-.1H25.2a.14.14 0 0 0-.13.1l-.5 1.49a.14.14 0 0 1-.13.1h-3.08a.14.14 0 0 1-.13-.19l4.63-13.6a.14.14 0 0 1 .13-.1h2.82a.14.14 0 0 1 .14.1l4.39 13.6a.14.14 0 0 1-.14.19h-3.06a.14.14 0 0 1-.14-.15m-3.59-4.78h1.86a.14.14 0 0 0 .14-.19l-.9-2.78a.14.14 0 0 0-.27 0l-1 2.78a.14.14 0 0 0 .17.19m19.2-9.03h3.06a.14.14 0 0 1 .14.13l.8 13.62a.14.14 0 0 1-.14.15h-2.92a.14.14 0 0 1-.14-.13l-.29-4.82a.14.14 0 0 0-.28 0l-1.64 4.86a.14.14 0 0 1-.13.1h-3a.14.14 0 0 1-.13-.1l-1.8-5.14a.14.14 0 0 0-.28 0l-.32 5.06a.14.14 0 0 1-.14.13h-2.94a.14.14 0 0 1-.14-.15l.88-13.57a.14.14 0 0 1 .14-.13h3.06a.14.14 0 0 1 .13.1l2.88 8.22a.14.14 0 0 0 .27 0l2.8-8.22a.14.14 0 0 1 .13-.11" class="cls-2"/><path d="M58.28.23h53.92a1 1 0 0 1 1 1v9.34a9.76 9.76 0 0 1-9.76 9.76H58.28a1 1 0 0 1-1-1V1.19a1 1 0 0 1 1-.96" style="fill:#1d1d1b"/><path d="M103.4 20.52H58.28a1.19 1.19 0 0 1-1.19-1.19V1.19A1.19 1.19 0 0 1 58.28 0h53.92a1.19 1.19 0 0 1 1.19 1.19v9.34a10 10 0 0 1-9.99 9.99M58.28.47a.73.73 0 0 0-.73.73v18.13a.73.73 0 0 0 .73.73h45.12a9.54 9.54 0 0 0 9.53-9.53V1.19a.73.73 0 0 0-.73-.73Z" class="cls-2"/><path d="M66.2 17.19a5 5 0 0 1-1.31-.18 4.5 4.5 0 0 1-1.24-.56 4.65 4.65 0 0 1-1.59-1.71 4.7 4.7 0 0 1-.57-2.15.14.14 0 0 1 .14-.15h2.97a.14.14 0 0 1 .14.14 1.3 1.3 0 0 0 .24.74 1.8 1.8 0 0 0 .44.43 1.43 1.43 0 0 0 .74.25 1.7 1.7 0 0 0 .78-.15 1.3 1.3 0 0 0 .43-.28 1.6 1.6 0 0 0 .25-.33.9.9 0 0 0 .1-.31 1.6 1.6 0 0 0 0-.49 1 1 0 0 0-.1-.32 1.3 1.3 0 0 0-.25-.33 1.6 1.6 0 0 0-.43-.29l-.44-.17-.5-.17-1-.34a5.5 5.5 0 0 1-1-.51 4 4 0 0 1-1.12-1 4.13 4.13 0 0 1-.79-2.83 3.9 3.9 0 0 1 .43-1.47 4.2 4.2 0 0 1 .85-1.12 4.1 4.1 0 0 1 1.13-.75 4.1 4.1 0 0 1 1.34-.33 4.4 4.4 0 0 1 1.46.13 4.2 4.2 0 0 1 1.3.54 4.1 4.1 0 0 1 1 .89 3.9 3.9 0 0 1 .6 1.11 4 4 0 0 1 .22 1.2.14.14 0 0 1-.14.15h-2.9a.14.14 0 0 1-.14-.12.6.6 0 0 0-.27-.48 2 2 0 0 0-.47-.22h-.16a.9.9 0 0 0-.32 0 1.1 1.1 0 0 0-.37.13.74.74 0 0 0-.3.33.85.85 0 0 0-.06.63.9.9 0 0 0 .38.52 4 4 0 0 0 .59.27l.68.24.65.21q.33.11.67.26a4.45 4.45 0 0 1 2.66 4.05 4.4 4.4 0 0 1-.72 2.44 4.7 4.7 0 0 1-2.95 2 5 5 0 0 1-1.05.1m42.74-8.04a5.7 5.7 0 0 1-.44 2.24 5.8 5.8 0 0 1-1.23 1.84 5.9 5.9 0 0 1-1.83 1.26 5.6 5.6 0 0 1-2.09.48.14.14 0 0 0-.14.14v1.94a.14.14 0 0 1-.14.14h-2.91a.14.14 0 0 1-.14-.14V3.45a.14.14 0 0 1 .14-.14h3.04a5.55 5.55 0 0 1 2.23.49 6.1 6.1 0 0 1 1.83 1.27 5.8 5.8 0 0 1 1.23 1.84 5.7 5.7 0 0 1 .45 2.24m-5.74 2.5a.14.14 0 0 0 .15.14 2.5 2.5 0 0 0 .84-.23 2.7 2.7 0 0 0 .8-.57 2.6 2.6 0 0 0 .54-.83 2.65 2.65 0 0 0 0-2 2.6 2.6 0 0 0-.54-.83 2.7 2.7 0 0 0-.8-.57 2.5 2.5 0 0 0-.84-.23.14.14 0 0 0-.15.12ZM90.11 3.3a6.7 6.7 0 0 1 2.7.55 7.1 7.1 0 0 1 2.21 1.48 7 7 0 0 1 1.49 2.2 6.95 6.95 0 0 1 0 5.41 7 7 0 0 1-1.49 2.2 7.1 7.1 0 0 1-2.21 1.51 6.93 6.93 0 0 1-5.4 0 6.94 6.94 0 0 1-3.68-3.69 7 7 0 0 1 0-5.41 6.94 6.94 0 0 1 3.68-3.69 6.7 6.7 0 0 1 2.7-.56m0 10.69a3.6 3.6 0 0 0 1.46-.29 3.77 3.77 0 0 0 2-2 3.76 3.76 0 0 0 0-2.91 3.77 3.77 0 0 0-2-2 3.76 3.76 0 0 0-2.91 0 3.77 3.77 0 0 0-2 2 3.76 3.76 0 0 0 0 2.91 3.77 3.77 0 0 0 2 2 3.6 3.6 0 0 0 1.46.29Z" class="cls-2"/><rect width="3.22" height="10.84" x="75.82" y="6.35" class="cls-2" rx=".14" ry=".14"/><rect width="8.51" height="3.22" x="73.17" y="3.3" class="cls-2" rx=".14" ry=".14"/></svg>